#!OML:ASF E:\Steps\Project 1\Capture day 1\Session 2\Subject.ASF
:FULLY-SPECIFIED
:DEGREES
80
root 9.26102 16.2949 19.6094 -152.268 -2.80246 179.814
lowerback -31.4557 -1.73152 -5.12703
upperback -3.49178 -1.64471 -0.210776
thorax 12.5446 -1.47871 1.78846
lowerneck -1.70621 -2.95391 -1.04436
upperneck 4.69907 -4.00006 0.774484
head 1.78595 -2.01829 0.332681
rclavicle -5.66536e-015 -3.97569e-016
rhumerus -35.246 -22.4978 -78.704
rradius 25.094
rwrist 4.28811
rhand -9.04654 -49.5142
rfingers 7.12502
rthumb 16.9016 -78.7988
lclavicle -5.66536e-015 -3.97569e-016
lhumerus -27.8974 9.60454 80.3837
lradius 15.3859
lwrist -13.5445
lhand -21.5677 -12.5081
lfingers 7.12502
lthumb 4.82617 17.417
rfemur -23.3943 8.47326 17.7572
rtibia 6.66265
rfoot -19.1985 -6.62106
rtoes -32.6256
lfemur -24.7239 -10.906 -16.4737
ltibia 7.62551
lfoot -7.78008 1.82348
ltoes -31.4211
81
root 9.26156 16.2959 19.61 -152.309 -2.82597 179.765
lowerback -31.4162 -1.76693 -5.16782
upperback -3.47809 -1.67296 -0.218561
thorax 12.5455 -1.49162 1.79211
lowerneck -1.73495 -2.99312 -0.968018
upperneck 4.65766 -4.04817 0.677539
head 1.77392 -2.0422 0.28865
rclavicle -1.93815e-015 7.95139e-015
rhumerus -35.1872 -22.5564 -78.7251
rradius 25.0379
rwrist 4.30369
rhand -9.14475 -50.0345
rfingers 7.12502
rthumb 16.8071 -79.3271
lclavicle -1.93815e-015 7.95139e-015
lhumerus -27.8984 9.64877 80.3719
lradius 15.3892
lwrist -13.3155
lhand -21.4441 -12.6888
lfingers 7.12502
lthumb 4.94553 17.2335
rfemur -23.3193 8.45121 17.7101
rtibia 6.6213
rfoot -19.2271 -6.61213
rtoes -32.6501
lfemur -24.6764 -10.8558 -16.5562
ltibia 7.64049
lfoot -7.8377 1.71922
ltoes -31.6639
82
root 9.26123 16.2975 19.6111 -152.362 -2.82983 179.761
lowerback -31.3548 -1.7706 -5.18203
upperback -3.49081 -1.67633 -0.218497
thorax 12.5054 -1.4928 1.80058
lowerneck -1.73091 -3.01877 -0.878594
upperneck 4.60789 -4.07855 0.565043
head 1.75252 -2.05763 0.23867
rclavicle 1.0138e-014 6.75868e-015
rhumerus -35.2629 -22.5086 -78.7559
rradius 25.1074
rwrist 4.20659
rhand -9.21333 -50.3278
rfingers 7.12502
rthumb 16.7411 -79.626
lclavicle 1.0138e-014 6.75868e-015
lhumerus -27.9024 9.82118 80.3353
lradius 15.2965
lwrist -13.3122
lhand -21.4794 -12.8885
lfingers 7.12502
lthumb 4.91147 17.0346
rfemur -23.2584 8.4488 17.7089
rtibia 6.60892
rfoot -19.2785 -6.56496
rtoes -32.35
lfemur -24.6278 -10.8374 -16.5818
ltibia 7.68659
lfoot -7.91401 1.67156
ltoes -31.555
83
root 9.26047 16.2985 19.6129 -152.41 -2.84779 179.797
lowerback -31.2981 -1.76317 -5.15186
upperback -3.50221 -1.68162 -0.199705
thorax 12.4694 -1.49275 1.80457
lowerneck -1.72732 -3.04399 -0.841593
upperneck 4.56759 -4.1078 0.469404
head 1.73588 -2.07313 0.202667
rclavicle 3.37934e-015 1.23246e-014
rhumerus -35.3074 -22.5505 -78.7136
rradius 25.1105
rwrist 4.27284
rhand -9.29812 -50.4425
rfingers 7.12502
rthumb 16.6595 -79.7475
lclavicle 3.37934e-015 1.23246e-014
lhumerus -27.9427 9.65651 80.4685
lradius 15.2935
lwrist -13.1355
lhand -21.796 -12.8827
lfingers 7.12502
lthumb 4.60576 17.0472
rfemur -23.2051 8.59734 17.7243
rtibia 6.57874
rfoot -19.291 -6.6629
rtoes -32.0341
lfemur -24.6122 -10.8432 -16.5444
ltibia 7.75691
lfoot -7.87968 1.68448
ltoes -31.4854
84
root 9.25935 16.2965 19.6159 -152.374 -2.80293 179.789
lowerback -31.308 -1.76085 -5.16454
upperback -3.52178 -1.68222 -0.173626
thorax 12.4523 -1.49532 1.83891
lowerneck -1.7329 -3.07469 -0.85237
upperneck 4.53301 -4.14375 0.393225
head 1.72435 -2.09236 0.180339
rclavicle -2.38542e-015 -1.82882e-014
rhumerus -35.2249 -22.8055 -78.5551
rradius 24.9231
rwrist 4.68254
rhand -9.22134 -50.6223
rfingers 7.12502
rthumb 16.7334 -79.9211
lclavicle -2.38542e-015 -1.82882e-014
lhumerus -28.004 9.14559 80.7734
lradius 15.3671
lwrist -12.4842
lhand -22.1779 -12.8626
lfingers 7.12502
lthumb 4.23701 17.075
rfemur -23.2859 8.68322 17.6784
rtibia 6.62426
rfoot -19.263 -6.7622
rtoes -32.6667
lfemur -24.6731 -10.8833 -16.5405
ltibia 7.78807
lfoot -7.86284 1.74145
ltoes -31.0512
